<svg xmlns="http://www.w3.org/2000/svg" viewBox="0 0 36 36"><path fill="#FFCC4D" d="M35.73 19.93C35.38 16.66 35 15 34 13c0 0 3-9 1-12.7-.67-1.25-7.4 1.69-10 3.7 0 0-4-1-7-1s-7 1-7 1C8.4 1.99 1.67-.95 1 .3-1 4 2 13 2 13 1 15 .62 16.66.27 19.93-.13 23.5.66 26.37 1 27c.39.72 2.37 3.02 5 5 4 3 10 4 12 4s8-1 12-4c2.63-1.98 4.61-4.28 5-5 .34-.63 1.13-3.49.73-7.07z"/><path fill="#E75A70" d="M18 19.5c3 0 3 .5 3 1.5s-1.5 3-3 3-3-2-3-3 0-1.5 3-1.5z"/><path fill="#F18F26" d="M2 3c.45-1.34 5.64 1 6.64 2C8.64 5 4 8 3 11c0 0-2-5-1-8zm32 0c-.45-1.34-5.64 1-6.64 2 0 0 4.64 3 5.64 6 0 0 2-5 1-8z"/><path fill="#FFCC4D" d="M4.93 5.6C4.93 4.2 11 7 10 8s-2 1.6-3 2.6-2.07-4-2.07-5zm26.14 0C31.07 4.2 25 7 26 8s2 1.6 3 2.6 2.07-4 2.07-5z"/><path fill="#FEE7B8" d="M.7 25a.5.5 0 0 1-.3-.9c.15-.12 4.01-3.11 10.64-2.6a.5.5 0 0 1 .46.54c-.02.27-.26.5-.54.46-6.23-.48-9.91 2.36-9.95 2.4-.1.06-.2.1-.3.1zm8.87-4.66-.15-.03c-4.79-1.5-8.74-.34-8.78-.33a.5.5 0 1 1-.28-.96c.17-.05 4.28-1.24 9.36.34a.5.5 0 0 1-.15.98zM35.3 25a.5.5 0 0 0 .3-.9c-.15-.12-4.01-3.11-10.64-2.6a.5.5 0 0 0-.46.54c.02.27.26.5.54.46 6.23-.48 9.91 2.36 9.95 2.4.1.06.2.1.3.1zm-8.87-4.66.15-.03c4.79-1.5 8.74-.34 8.78-.33a.5.5 0 1 0 .28-.96 17.26 17.26 0 0 0-9.36.34.5.5 0 0 0 .15.98z"/><path fill="#292F33" d="M28.02 24.2C27.05 24.37 23 26 18 26s-9.05-1.62-10.02-1.8c-.98-.2-1.1 1.06-.54 2.93S11 33 18 33s10-4 10.56-5.87c.56-1.87.44-3.13-.54-2.94z"/><path fill="#F5F8FA" d="M8 25s5 2 10 2 10-2 10-2-.5 3-1.5 3-1.5-1-1.5-1-4 2-7 2-7-2-7-2-.5 1-1.5 1S8 25 8 25z"/><path fill="#292F33" d="M28.42 17.72a5.47 5.47 0 0 0-8.84 0 .5.5 0 0 0 .08.64.5.5 0 0 0 .64.04c.01 0 1.26-.9 3.7-.9 2.43 0 3.67.88 3.7.9a.5.5 0 0 0 .72-.68zm-12 0a5.47 5.47 0 0 0-8.84 0 .5.5 0 0 0 .72.68c.01 0 1.26-.9 3.7-.9 2.43 0 3.67.88 3.7.9a.5.5 0 0 0 .72-.68zM31 16a1 1 0 0 1-.8-.4C27.56 12.08 24.14 12 24 12a1 1 0 0 1 0-2c.18 0 4.54.05 7.8 4.4A1 1 0 0 1 31 16zM5 16a1 1 0 0 1-.8-1.6C7.46 10.05 11.82 10 12 10a1 1 0 0 1 0 2c-.15 0-3.57.09-6.2 3.6a1 1 0 0 1-.8.4z"/></svg>